<?xml version="1.0" encoding="UTF-8"?>
<!--
  Soapbox wordmark, outlined (glyphs as vector paths, no font needed).
  Geist Black. "soap" #C8202F, "box" #114A8A. Scales cleanly to any size.
-->
<svg xmlns="http://www.w3.org/2000/svg" viewBox="8.00 -767.00 3555.00 929.00" role="img" aria-label="soapbox">
  <path d="M225-168Q225-185 200-201L114-257Q67-288 46-324Q25-360 25-418Q25-501 74-541.50Q123-582 235-583Q277-583 312.50-579.50Q348-576 369.50-572Q391-568 391-568L376-435Q376-435 361-437Q346-439 322.50-441.50Q299-444 274-444Q238-444 222-438Q206-432 206-415Q206-405 212-398.50Q218-392 231-384L319-327Q367-296 388-260.50Q409-225 409-169Q409-80 358-35.50Q307 9 191 10Q140 10 97.50 4.50Q55-1 20-10L35-146Q35-146 72-140.50Q109-135 170-135Q225-135 225-168M696 10Q607 10 552.50-20Q498-50 473.50-115.50Q449-181 449-287Q449-393 473.50-458Q498-523 552.50-553Q607-583 696-583Q786-583 840-553Q894-523 918.50-458Q943-393 943-287Q943-181 918.50-115.50Q894-50 840-20Q786 10 696 10M695-131Q729-131 743-167.50Q757-204 757-286Q757-369 743-405.50Q729-442 695-442Q662-442 648.50-405.50Q635-369 635-286Q635-204 648.50-167.50Q662-131 695-131M1137 10Q1097 10 1062-10.50Q1027-31 1005-70Q983-109 983-164Q983-250 1043.50-294Q1104-338 1200-338L1243-338L1243-393Q1243-422 1223-432.50Q1203-443 1172-443Q1134-443 1099-436Q1064-429 1029-416L1029-556Q1074-566 1122.50-574.50Q1171-583 1220-583Q1275-583 1321-569.50Q1367-556 1395-521Q1423-486 1423-421L1423 0L1267 0L1255-43Q1230-16 1199-3Q1168 10 1137 10M1207-122Q1227-122 1243-140L1243-239L1230-239Q1200-239 1179-224.50Q1158-210 1158-181Q1158-153 1173-137.50Q1188-122 1207-122M1678 124L1498 150L1498-575L1651-575L1666-529Q1689-555 1721.50-569Q1754-583 1792-583Q1847-583 1882.50-559.50Q1918-536 1938.50-495Q1959-454 1967.50-402.50Q1976-351 1976-294Q1976-130 1925-60Q1874 10 1776 10Q1732 10 1678-8L1678 124M1719-130Q1765-130 1777.50-172Q1790-214 1790-299Q1790-378 1778-410.50Q1766-443 1733-443Q1723-443 1709-439Q1695-435 1678-426L1678-136Q1701-130 1719-130" fill="#C8202F"/>
  <path d="M2255 10Q2193 10 2135.50-1.50Q2078-13 2036-34L2036-729L2216-755L2216-541Q2238-561 2267.50-572Q2297-583 2330-583Q2385-583 2420.50-559.50Q2456-536 2476.50-495Q2497-454 2505.50-402.50Q2514-351 2514-294Q2514-130 2448-60Q2382 10 2255 10M2257-130Q2303-130 2315.50-172Q2328-214 2328-299Q2328-378 2316-410.50Q2304-443 2271-443Q2261-443 2247-439Q2233-435 2216-426L2216-136Q2239-130 2257-130M2801 10Q2712 10 2657.50-20Q2603-50 2578.50-115.50Q2554-181 2554-287Q2554-393 2578.50-458Q2603-523 2657.50-553Q2712-583 2801-583Q2891-583 2945-553Q2999-523 3023.50-458Q3048-393 3048-287Q3048-181 3023.50-115.50Q2999-50 2945-20Q2891 10 2801 10M2800-131Q2834-131 2848-167.50Q2862-204 2862-286Q2862-369 2848-405.50Q2834-442 2800-442Q2767-442 2753.50-405.50Q2740-369 2740-286Q2740-204 2753.50-167.50Q2767-131 2800-131M3315-399L3369-575L3551-575L3437-285L3550 0L3368 0L3328-110L3312-176L3258 0L3076 0L3190-290L3077-575L3259-575L3299-465" fill="#114A8A"/>
</svg>
